<?xml version="1.0" standalone="no"?>
<!DOCTYPE svg PUBLIC "-//W3C//DTD SVG 20010904//EN"
 "http://www.w3.org/TR/2001/REC-SVG-20010904/DTD/svg10.dtd">
<svg version="1.0" xmlns="http://www.w3.org/2000/svg"
 width="1133.000000pt" height="1280.000000pt" viewBox="0 0 1133.000000 1280.000000"
 preserveAspectRatio="xMidYMid meet">
<g transform="translate(0.000000,1280.000000) scale(0.100000,-0.100000)"
fill="#000000" stroke="none">
<path d="M9765 12790 c-16 -5 -78 -20 -138 -35 -384 -91 -1069 -448 -1787
-930 -462 -310 -878 -635 -1039 -811 -31 -34 -184 -169 -341 -300 -237 -198
-547 -461 -952 -808 -38 -32 -71 -56 -75 -53 -3 4 6 33 20 64 40 90 59 169 60
247 2 123 -49 176 -170 176 -34 0 -65 5 -68 11 -4 5 4 27 18 48 112 169 166
387 119 481 -24 49 -89 80 -164 80 -51 0 -58 2 -58 19 0 11 4 22 9 25 16 10
80 132 106 200 107 284 14 417 -252 360 -41 -8 -43 7 -9 74 67 133 88 300 47
380 -28 55 -70 76 -146 75 -250 -5 -660 -349 -987 -828 -127 -186 -319 -529
-393 -700 -177 -412 -280 -719 -505 -1504 -122 -424 -154 -518 -231 -676 -69
-143 -134 -231 -223 -303 -181 -147 -250 -282 -276 -540 -11 -103 -2 -289 20
-411 7 -36 7 -58 0 -65 -12 -12 -154 50 -263 116 -140 84 -222 159 -514 475
-62 67 -143 144 -180 172 -259 194 -504 221 -837 91 -148 -58 -255 -127 -362
-234 -107 -108 -143 -174 -176 -319 l-22 -98 23 -96 c13 -53 41 -130 62 -172
35 -68 198 -302 249 -356 11 -12 32 -50 46 -86 42 -104 73 -126 134 -94 28 14
28 14 94 -53 36 -37 79 -88 94 -113 16 -25 44 -56 62 -70 168 -123 847 -967
1005 -1249 29 -52 81 -158 115 -235 34 -77 96 -207 139 -290 145 -283 260
-444 489 -691 240 -258 507 -492 729 -640 73 -48 110 -79 107 -88 -12 -30 -56
-41 -173 -41 l-116 0 3 35 c5 53 -23 73 -93 71 -30 -1 -63 -2 -72 -2 -10 0
-54 5 -97 12 -61 10 -97 10 -157 1 -104 -15 -132 -31 -155 -87 -11 -24 -24
-47 -30 -49 -6 -2 -143 -7 -305 -10 -162 -4 -318 -9 -346 -12 l-53 -5 0 -1130
0 -1129 23 -9 c12 -5 589 -122 1282 -260 693 -138 1427 -284 1630 -324 204
-41 374 -71 378 -67 10 8 50 285 76 530 50 456 71 840 71 1289 0 459 -18 695
-60 807 -6 15 -7 31 -3 35 5 5 82 19 173 33 371 56 752 135 1330 276 460 112
449 109 590 119 207 15 327 -9 536 -109 67 -33 146 -66 175 -74 30 -8 155 -24
279 -36 276 -24 439 -39 505 -45 46 -5 163 -14 550 -46 205 -17 737 -17 840
-1 141 23 195 34 195 42 0 4 -44 34 -97 65 -235 140 -354 218 -346 226 6 6
150 -18 354 -57 391 -74 485 -86 495 -60 8 21 -16 58 -61 92 -35 26 -337 121
-955 300 -250 72 -413 124 -408 130 4 4 164 -32 398 -90 254 -62 822 -166
1150 -211 129 -18 429 -32 455 -21 17 6 17 7 1 25 -38 42 -335 169 -576 246
-74 24 -256 81 -405 125 -868 262 -1884 626 -2513 899 -143 62 -203 96 -470
269 -169 109 -409 263 -534 340 -333 209 -341 221 -81 118 399 -159 574 -195
943 -197 247 -2 301 13 262 74 -44 66 -457 365 -675 487 -56 31 -77 54 -63 67
3 3 47 0 97 -7 156 -21 227 5 215 79 -8 49 -85 158 -179 253 -43 44 -76 83
-72 86 3 4 68 -6 143 -21 308 -61 385 -70 612 -71 195 -1 222 1 293 22 97 28
157 64 157 95 -1 40 -65 113 -153 171 -126 84 -319 164 -581 242 -112 33 -103
48 20 34 351 -40 651 -10 825 82 82 43 113 78 104 117 -16 76 -141 184 -289
251 -36 17 -66 35 -66 40 0 6 64 10 169 10 108 0 197 5 247 15 84 16 201 65
210 89 15 39 -88 148 -194 204 -34 18 -62 37 -62 41 0 5 73 11 163 14 96 3
188 12 225 21 76 19 163 61 192 91 18 19 19 26 9 56 -44 132 -239 270 -553
394 -119 46 -156 72 -96 68 287 -20 505 -12 645 23 69 18 174 71 183 92 10 26
-31 82 -92 129 -72 54 -183 108 -318 152 -54 18 -98 36 -98 41 0 9 50 16 180
26 196 14 401 71 489 135 54 38 58 51 30 90 -50 71 -203 143 -399 189 -169 39
-175 41 -160 50 8 4 77 10 153 14 291 14 509 75 617 172 22 20 40 44 40 54 0
57 -116 150 -259 207 -144 57 -137 53 -120 64 7 5 39 9 70 9 79 0 260 26 354
50 132 34 265 107 265 146 0 25 -69 90 -130 123 -33 18 -91 43 -127 55 -37 12
-68 27 -70 33 -3 7 31 16 84 23 119 17 259 53 324 84 57 27 129 81 129 97 0
17 -73 90 -116 115 -112 66 -313 122 -567 159 -87 12 -161 25 -164 28 -9 9 34
23 129 41 226 42 424 125 516 216 29 28 52 55 52 61 0 19 -76 92 -119 113
-115 58 -242 86 -480 107 -80 7 -140 17 -138 23 2 5 55 26 118 46 150 49 281
107 372 163 76 48 157 125 157 151 0 43 -114 84 -275 98 -151 14 -343 0 -672
-48 -79 -12 -44 12 110 76 310 128 566 276 682 394 62 63 92 114 82 140 -17
45 -236 61 -412 30 -131 -22 -422 -97 -512 -131 -7 -3 -13 1 -13 8 1 8 58 51
128 97 382 247 639 496 708 683 10 25 15 53 11 62 -15 40 -171 69 -252 47z
m-7077 -9782 c-2 -18 -11 -24 -35 -26 -38 -4 -43 10 -11 32 32 23 50 20 46 -6z
m122 -8 c0 -5 -4 -10 -10 -10 -5 0 -10 5 -10 10 0 6 5 10 10 10 6 0 10 -4 10
-10z"/>
</g>
</svg>
